<svg width="33" height="69" viewBox="0 0 33 69" fill="none" xmlns="http://www.w3.org/2000/svg">
<g clip-path="url(#clip0_580_1844)">
<path d="M7.99537 21.6068C6.82347 20.2795 5.82318 19.3036 4.99942 18.1911C0.0421166 11.55 3.26853 2.61065 11.3689 0.707628C16.184 -0.424428 20.9599 -0.360994 25.4465 2.10318C28.1678 3.59632 29.3397 5.96779 29.1387 8.99799C28.9671 11.6183 27.1185 13.253 24.6276 13.1261C22.1367 12.9992 20.6559 11.1743 20.8422 8.40757C21.1021 4.50392 20.4793 3.28403 17.7727 2.48379C16.3788 2.10946 14.8994 2.20744 13.5677 2.76227C12.236 3.31711 11.1277 4.29724 10.4176 5.54815C8.88288 8.17335 9.18689 10.6424 11.7072 12.6869C14.9925 15.3707 18.518 17.7519 21.8131 20.421C24.4069 22.5241 27.04 24.6516 29.2318 27.1353C33.792 32.3027 33.5125 38.1045 28.7415 43.0719C27.3931 44.4675 25.8485 45.6825 24.3285 47.0536C25.2699 48.0588 25.8927 48.6981 26.4909 49.3568C32.7819 56.2858 29.8644 66.0058 20.7637 68.187C16.3551 69.3073 11.6922 68.8674 7.57369 66.9427C4.20998 65.3861 2.53303 61.8192 3.52351 58.7158C3.78398 57.7184 4.41415 56.856 5.28737 56.302C6.1606 55.7481 7.21216 55.5435 8.23074 55.7295C10.3784 56.0174 11.5552 57.4422 11.5895 59.8137C11.5808 60.1401 11.5546 60.4659 11.5111 60.7896C11.2561 64.0247 12.1142 65.6057 14.5561 66.3913C17.199 67.2452 20.244 65.9814 21.9111 63.3367C23.4067 60.9848 23.3821 58.4132 21.3325 56.7005C18.1012 53.9631 14.5855 51.5575 11.315 48.864C8.50042 46.5266 5.56821 44.2284 3.19008 41.4763C-1.35534 36.2454 -0.977784 30.4973 3.86674 25.5543C5.17594 24.2124 6.5734 22.9633 7.99537 21.6068ZM22.1465 45.619C26.5595 41.1884 26.8439 36.5968 22.7839 33.0981C18.7239 29.5995 14.5021 26.5156 10.3833 23.2707C6.16642 26.9889 5.47995 31.7709 9.10353 35.0792C13.242 38.856 17.8021 42.1448 22.1465 45.619Z" fill="#9DBC78"/>
</g>
<defs>
<clipPath id="clip0_580_1844">
<rect width="32.4897" height="68.8017" fill="white"/>
</clipPath>
</defs>
</svg>
