<svg width="69" height="69" viewBox="0 0 69 69" fill="none" xmlns="http://www.w3.org/2000/svg">
<path fill-rule="evenodd" clip-rule="evenodd" d="M27.9294 8.60089H40.8297C42.0165 8.60089 42.9797 7.63767 42.9797 6.45084C42.9797 5.26401 42.0165 4.30078 40.8297 4.30078H27.9294C26.7425 4.30078 25.7793 5.26401 25.7793 6.45084C25.7793 7.63767 26.7425 8.60089 27.9294 8.60089Z" fill="#9DBC78"/>
<path fill-rule="evenodd" clip-rule="evenodd" d="M32.2277 37.9544L23.1416 48.9282C22.3848 49.842 22.5138 51.1987 23.4275 51.9555C24.3413 52.7123 25.698 52.5833 26.4548 51.6695L36.0419 40.0915C36.4117 39.6443 36.5708 39.0896 36.5278 38.5542L36.5321 23.6501C36.5321 22.4632 35.5689 21.5 34.3821 21.5C33.1952 21.5 32.232 22.4632 32.232 23.6501L32.2277 37.9544Z" fill="#9DBC78"/>
<path fill-rule="evenodd" clip-rule="evenodd" d="M52.0415 19.7918L55.2708 16.5624C56.1094 15.7239 56.1094 14.3607 55.2708 13.5222C54.4323 12.6837 53.0692 12.6837 52.2307 13.5222L48.6487 17.1042C44.5657 14.3908 39.6657 12.8105 34.4003 12.8105C20.1605 12.8105 8.59961 24.3714 8.59961 38.6112C8.59961 52.851 20.1605 64.4118 34.4003 64.4118C48.6401 64.4118 60.2009 52.851 60.2009 38.6112C60.2009 31.1914 57.0618 24.5004 52.0415 19.7918ZM34.4003 17.1107C46.2664 17.1107 55.9008 26.745 55.9008 38.6112C55.9008 50.4773 46.2664 60.1117 34.4003 60.1117C22.5341 60.1117 12.8997 50.4773 12.8997 38.6112C12.8997 26.745 22.5341 17.1107 34.4003 17.1107Z" fill="#9DBC78"/>
</svg>