<svg width="45" height="47" viewBox="0 0 45 47" fill="none" xmlns="http://www.w3.org/2000/svg">
<g clip-path="url(#clip0_1425_1791)">
<path d="M14.1866 35.25H38.4472V30.1421H14.1866V35.25ZM23.3305 20.13H38.4479V15.0221H23.3305V20.13ZM6.55469 0V12.571H11.5879V5.10786H38.4472V0H6.55469ZM20.7338 15.0548H6.55469V35.2195H11.5879V20.1626H20.7338V15.0548Z" fill="#9DBC78"/>
<path d="M0 46.7388V41.356H3.95718V42.3343H1.03845V43.8052H3.7996V44.7448H1.03845V46.7388H0Z" fill="#9DBC78"/>
<path d="M8.77812 46.7387H4.65625V41.3481H8.77812V42.3341H5.68688V43.5736H8.66807V44.521H5.68688V45.7378H8.77812V46.7387Z" fill="#9DBC78"/>
<path d="M11.1719 46.7388V41.356H15.129V42.3343H12.2103V43.8052H14.9715V44.7448H12.2103V46.7388H11.1719Z" fill="#9DBC78"/>
<path d="M15.9297 46.7387V41.3481H16.9604V46.7387H15.9297Z" fill="#9DBC78"/>
<path d="M21.5555 41.3408H22.5939V46.7389H21.9487V46.7468L19.0541 43.1044V46.7389H18.0156V41.3484H18.8575L21.5555 44.6905V41.3408Z" fill="#9DBC78"/>
<path d="M27.4526 45.7221H24.5736L24.1016 46.7387H22.9766L25.4467 41.3481H26.5795L29.0496 46.7387H27.9168L27.4526 45.7221ZM26.0131 42.4801L24.9902 44.7751H27.0352L26.0124 42.4801H26.0131Z" fill="#9DBC78"/>
<path d="M33.1414 41.3408H34.1798V46.7389H33.5346V46.7468L30.64 43.1044V46.7389H29.6016V41.3484H30.4434L33.1414 44.6905V41.3408Z" fill="#9DBC78"/>
<path d="M39.9879 46.0616C39.4214 46.6082 38.6896 46.8628 37.8953 46.8628C35.8504 46.8628 34.9844 45.4841 34.9766 44.0824C34.9688 42.6733 35.9051 41.2412 37.8953 41.2412C38.6428 41.2412 39.3504 41.5185 39.9169 42.0653L39.2248 42.7199C38.8628 42.3731 38.3752 42.2119 37.8953 42.2119C36.5659 42.2119 35.9916 43.182 35.9994 44.0832C36.0072 44.9767 36.5347 45.9084 37.8953 45.9084C38.3752 45.9084 38.9182 45.716 39.2795 45.3618L39.9872 46.062L39.9879 46.0616Z" fill="#9DBC78"/>
<path d="M44.6766 46.7387H40.5547V41.3481H44.6766V42.3341H41.5853V43.5736H44.5665V44.521H41.5853V45.7378H44.6766V46.7387Z" fill="#9DBC78"/>
</g>
<defs>
<clipPath id="clip0_1425_1791">
<rect width="45" height="47" fill="white"/>
</clipPath>
</defs>
</svg>
