<svg width="137" height="61" viewBox="0 0 137 61" fill="none" xmlns="http://www.w3.org/2000/svg">
<path d="M31.4647 40.9126H32.9658V60.8284H29.4766V40.9126H31.4647Z" fill="#F8D100"/>
<path d="M31.4647 20.8491H32.9658V40.9121H29.4766V20.8491H31.4647Z" fill="#E3000F"/>
<path d="M20.3653 7.98719C21.3768 9.60069 22.2036 9.56322 23.4023 9.56322C22.3909 8.81401 21.7514 7.79989 21.4142 7.3129L19.5385 4.31335C19.3512 3.37683 18.8642 2.51255 18.1498 1.87572C18.3746 1.8008 18.5993 1.68841 18.7117 1.61349C17.5103 1.61349 16.2741 1.01412 15.6372 1.01412C15.2252 1.01412 14.9255 1.27635 14.9255 1.61349C14.9629 1.9881 15.3376 2.36271 16.0493 2.36271C16.1992 2.36271 16.4239 2.32525 16.6487 2.28779C17.0233 2.81224 17.3604 3.29923 17.3604 4.01367C17.3604 5.32747 15.7844 6.33891 14.211 6.33891C14.1361 6.33891 14.0237 6.33891 13.9488 6.33891C13.799 6.00176 13.3495 5.47732 13.3495 4.8378C13.3495 3.7889 14.0237 2.96208 14.0237 1.91318C14.0237 1.27634 13.7241 0.864273 13.5742 0.711754C13.7615 0.524449 13.9863 0.299686 14.0237 0.149843C13.9114 0.187304 13.7615 0.187304 13.5742 0.187304C12.825 0.187304 12.1855 0 11.5861 0C11.249 0 11.1366 0.112382 11.1366 0.224764C11.1366 0.262225 11.1366 0.299686 11.1366 0.299686C11.0242 0.262225 10.8744 0.224764 10.762 0.187304C10.5747 0.149843 10.3874 0.149843 10.2001 0.149843C9.4883 0.149843 9.22608 0.449527 9.22608 0.711754C9.22608 0.936519 9.41338 1.34859 9.60069 1.64828C9.90037 1.49843 10.2375 1.42351 10.3874 1.42351C10.762 1.42351 11.1366 1.79812 11.2864 2.24765C11.0242 2.28511 10.9867 2.28511 10.7245 2.28511C10.0128 2.28511 9.52309 2.02289 9.41071 2.02289L9.37325 2.06035C9.37325 2.17273 9.56055 2.43495 9.97262 2.5848C10.4971 2.7721 11.2864 2.84703 11.3988 2.88449C11.3988 2.92195 11.249 3.14671 11.0991 3.18417C11.0617 3.18417 11.0617 3.18417 11.0242 3.18417C10.4623 3.07179 10.3124 3.03433 9.63547 2.7721C9.59801 2.7721 9.59801 2.7721 9.59801 2.80957C9.59801 3.07179 10.3098 3.67116 10.9493 3.93339C10.4248 4.60769 9.74785 5.32212 9.44817 6.37102C9.37325 6.37102 9.26086 6.37102 9.18594 6.37102C7.60991 6.37102 6.03655 5.35958 6.03655 4.04577C6.03655 3.33402 6.33624 2.84435 6.74831 2.3199C6.97307 2.35736 7.19784 2.39482 7.34768 2.39482C8.05944 2.39482 8.43405 2.02021 8.47151 1.6456C8.47151 1.30845 8.20928 1.04623 7.75975 1.04623C7.08546 1.04623 5.88403 1.6456 4.68528 1.6456C4.79767 1.72052 5.02243 1.8329 5.2472 1.90783C4.53544 2.54466 4.04577 3.40894 3.85847 4.34546L1.9881 7.34768C1.68842 7.83467 1.01412 8.81133 0 9.59801C1.20142 9.59801 1.9881 9.63547 3.03701 8.02198L3.97353 6.48341C4.04845 6.67071 4.12337 6.85802 4.23575 7.08278L2.32257 10.1198C2.02289 10.6068 1.34859 11.5834 0.334472 12.3701C1.5359 12.3701 2.32257 12.4076 3.37148 10.7941L5.02243 8.16915C5.13482 8.28153 5.28466 8.43137 5.39704 8.54375L3.07179 12.2577C2.7721 12.7447 2.09781 13.7214 1.08369 14.5081C2.28511 14.5081 3.10925 14.5455 4.1207 12.932L6.37102 9.33043C6.52087 9.40535 6.67071 9.51774 6.82055 9.59266L4.08323 13.9809C3.78355 14.5054 3.10925 15.4446 2.09513 16.2313C3.29656 16.2313 4.1207 16.2687 5.13214 14.6552L7.94438 10.1171C8.09422 10.192 8.28153 10.2295 8.46883 10.3044L5.28198 15.4044C4.9823 15.8914 4.308 16.9056 3.29388 17.6548C4.4953 17.6548 5.28198 17.6922 6.33089 16.0787L9.7425 10.6416C9.77996 10.6416 9.81742 10.6416 9.85489 10.679C9.92981 10.9787 10.0047 11.2409 10.0047 11.5406C10.0047 13.2665 8.8809 14.7649 7.52963 15.9289C7.60456 15.9664 7.7544 15.9664 7.90424 15.9664C8.16647 15.9664 8.35377 15.9664 8.50362 15.9289C8.20393 16.6407 7.52963 17.5424 7.18981 18.0294C6.74028 17.9545 6.10345 17.8795 5.6887 17.8795C5.23917 17.8795 5.20171 18.1418 5.20171 18.3665C5.20171 18.7786 5.38901 19.0783 5.61378 19.2656C5.6887 19.0783 5.87601 18.7786 6.66268 18.7786C6.66268 18.7786 6.70014 18.7786 6.73761 18.7786C6.51284 19.0408 5.76362 19.6402 5.76362 20.1299C5.76362 20.467 6.10077 20.9165 6.58776 20.9165C6.5503 20.8042 6.5503 20.7292 6.5503 20.6543C6.5503 20.2797 6.88745 19.7927 7.18714 19.493C7.18714 19.6054 7.18714 19.568 7.18714 19.6803C7.18714 20.6169 7.26206 21.0316 7.86143 21.0316C8.16112 21.0316 8.34842 20.8818 8.42334 20.8443C8.04874 20.5072 8.01128 20.2075 8.01128 19.683C8.01128 19.5332 8.01128 19.4208 8.01128 19.2335C8.01128 19.1211 8.01127 18.9713 7.97381 18.8589C8.19858 18.8214 8.2735 18.8214 8.42334 18.8214C8.42334 18.8214 9.24748 18.7465 9.47225 19.196C9.69701 18.9713 10.0342 18.709 10.0342 18.3719C10.0342 18.1471 9.92178 17.9224 9.50971 17.9224C9.35987 17.9224 8.83541 18.0347 8.38588 18.0347C8.49827 17.7725 9.02272 17.0233 9.47225 16.4962C9.54717 16.7209 9.65955 16.9457 9.88432 17.133C9.92178 16.7959 10.1091 15.6693 10.671 15.0325C10.7459 15.482 10.8208 15.9316 10.8208 16.8708C10.8208 19.196 10.2589 20.8844 9.09496 21.2216C9.24481 21.4838 9.58196 21.746 9.9191 21.746C10.3312 21.746 10.5934 21.259 10.8182 20.8095C10.9305 21.1467 11.3052 21.9708 11.6423 21.9708C11.9795 21.9708 12.3166 21.1467 12.4664 20.8095C12.6912 21.259 12.9534 21.746 13.3655 21.746C13.7027 21.746 14.0398 21.5213 14.1896 21.2216C13.0284 20.8844 12.4638 19.196 12.4638 16.8708C12.4638 15.9342 12.5387 15.482 12.6136 15.0325C13.1755 15.6693 13.3628 16.7959 13.4003 17.133C13.6251 16.9457 13.7374 16.7209 13.8124 16.4962C14.2619 17.0581 14.7863 17.81 14.8987 18.0347C14.4867 18.0347 13.9622 17.9224 13.7749 17.9224C13.3628 17.9224 13.2504 18.1471 13.2504 18.3719C13.2504 18.709 13.5876 18.9713 13.8124 19.196C13.9997 18.7465 14.8613 18.8214 14.8613 18.8214C15.0111 18.8214 15.1235 18.8214 15.3108 18.8589C15.2733 18.9713 15.2733 19.1211 15.2733 19.2335C15.2733 19.4208 15.2733 19.5332 15.2733 19.683C15.2733 20.2075 15.2359 20.4697 14.8613 20.8443C14.9362 20.8818 15.1235 21.0316 15.4232 21.0316C16.0226 21.0316 16.0975 20.6195 16.0975 19.6803C16.0975 19.568 16.0975 19.568 16.0975 19.493C16.3972 19.8302 16.7343 20.2797 16.7343 20.6543C16.7343 20.7292 16.7343 20.8042 16.6968 20.9165C17.1464 20.9165 17.521 20.4296 17.521 20.1299C17.521 19.6429 16.7718 19.0435 16.547 18.7786C16.5845 18.7786 16.6219 18.7786 16.6219 18.7786C17.4461 18.7786 17.5959 19.0408 17.6708 19.2656C17.8956 19.0783 18.0829 18.7786 18.0829 18.3665C18.0829 18.1418 18.0454 17.8795 17.5959 17.8795C17.1838 17.8795 16.547 17.9545 16.0948 18.0294C15.7576 17.5424 15.0834 16.6407 14.781 15.9289C14.8934 15.9664 15.0807 15.9664 15.3804 15.9664C15.5302 15.9664 15.6801 15.9664 15.755 15.9289C14.4037 14.7676 13.2799 13.229 13.2799 11.5406C13.2799 11.2784 13.3548 10.9787 13.4297 10.679C13.4672 10.679 13.5046 10.679 13.5421 10.6416L16.9537 16.0787C17.9652 17.6922 18.792 17.6548 19.9907 17.6548C19.0167 16.9056 18.3398 15.8914 18.0026 15.4044L14.8158 10.3044C15.0031 10.267 15.1529 10.192 15.3402 10.1171L18.1525 14.6552C19.1639 16.2687 19.9907 16.2313 21.1895 16.2313C20.178 15.4446 19.5385 14.5054 19.2014 13.9809L16.4641 9.59266C16.6139 9.51774 16.7637 9.40535 16.9136 9.33043L19.1639 12.932C20.1754 14.5455 21.0022 14.5081 22.2009 14.5081C21.1895 13.7214 20.55 12.7822 20.2128 12.2577L17.8876 8.54375C18.0374 8.43137 18.1498 8.28153 18.2622 8.16915L19.9131 10.7941C20.9246 12.4076 21.7514 12.3701 22.9501 12.3701C21.9387 11.5834 21.2992 10.6442 20.962 10.1198L19.0489 7.08278C19.1612 6.89548 19.2362 6.70817 19.3111 6.48341L20.3653 7.98719ZM5.10003 4.46052C5.10003 3.33669 5.92417 2.43496 6.22386 2.17273C6.29878 2.17273 6.3737 2.21019 6.44862 2.21019C6.14893 2.5848 5.58702 3.22163 5.58702 4.04845C5.58702 5.6994 7.35036 7.16038 9.37592 7.16038C9.37592 7.31022 9.33846 7.46006 9.33846 7.60991C9.33846 7.87213 9.33846 8.0969 9.37592 8.2842C7.12559 8.32434 5.10003 6.48608 5.10003 4.46052ZM8.21196 18.1123V18.1498H8.24942C8.88625 18.1498 9.18594 18.1123 9.41071 18.0749C9.52309 18.0749 9.59801 18.0374 9.67293 18.0374C9.82278 18.0374 9.97262 18.0374 9.97262 18.2622C9.97262 18.412 9.82278 18.5993 9.67293 18.7492C9.44817 18.5244 9.11102 18.4869 8.62403 18.4869C8.39926 18.4869 8.09958 18.5244 7.94973 18.5619H7.91227H7.87481V18.6368C7.87481 18.7866 7.91227 18.9365 7.91227 19.1612V19.3485V19.6108C7.91227 20.1352 7.98719 20.4724 8.1745 20.6971C8.13704 20.6971 8.06211 20.7346 7.98719 20.7346C7.65004 20.7346 7.53766 20.5847 7.53766 19.6108C7.53766 19.4235 7.53766 19.2362 7.53766 19.1238V18.9365L7.5002 18.9739C7.01321 19.3485 6.48876 20.0228 6.4513 20.55C6.30145 20.4376 6.15161 20.2503 6.15161 20.063C6.15161 19.8007 6.56368 19.3512 7.05067 18.9017L7.3129 18.6395L7.35036 18.602L7.27544 18.5645C7.16305 18.5271 6.97575 18.4896 6.82591 18.4896C6.30145 18.4896 5.92684 18.602 5.73954 18.8268C5.66462 18.7144 5.5897 18.4522 5.5897 18.3023C5.5897 18.1899 5.62716 18.1525 5.66462 18.115C5.70208 18.0775 5.777 18.0775 5.85192 18.0775C6.4513 18.0775 7.16573 18.1899 7.42796 18.2274C7.46542 18.1525 8.62938 16.6514 8.92907 15.8272C9.00399 15.7898 9.04145 15.7898 9.19129 15.7898C9.41606 15.7898 9.49098 15.9396 9.52844 16.1644C8.81401 16.9858 8.36448 17.6628 8.21196 18.1123ZM14.3636 15.7122C14.476 15.7122 14.5509 15.7496 14.6258 15.7496C14.9255 16.5738 16.052 18.0749 16.1269 18.1498C16.3891 18.1123 17.1383 17.9999 17.7029 17.9999C17.7779 17.9999 17.8528 17.9999 17.8902 18.0374C17.9277 18.0749 17.9652 18.1498 17.9652 18.2247C17.9652 18.3746 17.8902 18.6368 17.8153 18.7492C17.5906 18.5244 17.2534 18.412 16.729 18.412C16.5791 18.412 16.3543 18.4495 16.2794 18.4869H16.242H16.2018L16.5015 18.7866C16.9885 19.2736 17.4006 19.6857 17.4006 19.9479C17.4006 20.0978 17.2507 20.3225 17.1009 20.4349C17.0634 19.9105 16.539 19.2335 16.052 18.8589L16.0145 18.8214V19.0087C16.0145 19.1211 16.0145 19.3084 16.0145 19.4957C16.0145 20.4697 15.9021 20.6195 15.565 20.6195C15.5275 20.6195 15.4526 20.6195 15.3777 20.5821C15.565 20.3573 15.6399 20.0576 15.6399 19.4957V19.2335V19.0462C15.6399 18.8214 15.6774 18.6716 15.6774 18.5217V18.4468H15.6399C15.4901 18.4093 15.1904 18.3719 14.9656 18.3719C14.4786 18.3719 14.1789 18.4093 13.9167 18.6341C13.7669 18.5217 13.617 18.297 13.617 18.1471C13.617 17.9598 13.7294 17.9224 13.9167 17.9224C13.9916 17.9224 14.0666 17.9224 14.1789 17.9598C14.3662 17.9973 14.7034 18.0347 15.3402 18.0347H15.3777V17.9973C15.2278 17.5477 14.7783 16.8734 14.0639 16.0092C14.0639 15.862 14.1388 15.7122 14.3636 15.7122ZM11.7012 2.47242C11.6262 2.17273 11.4764 1.87304 11.2891 1.64828C11.1018 1.42351 10.8396 1.19875 10.4275 1.19875C10.2402 1.19875 9.94051 1.27367 9.75321 1.34859C9.67828 1.23621 9.52844 0.899058 9.52844 0.749214C9.52844 0.599371 9.79067 0.449529 10.2402 0.449529C11.2516 0.449529 11.8912 0.89906 11.8912 1.68841C11.9259 1.98543 11.8136 2.24765 11.7012 2.47242ZM12.1882 1.46097C12.1507 1.23621 12.0758 1.0489 11.9259 0.8616C11.9259 0.674296 12.0009 0.449528 12.338 0.636832C12.1507 0.824136 12.3005 1.12383 12.3005 1.12383C12.3005 1.12383 12.6752 0.97398 12.6002 0.711754C13.1274 0.858921 12.7126 1.57335 12.1882 1.46097ZM14.1763 8.32434C14.2137 8.09958 14.2137 7.87481 14.2137 7.65004C14.2137 7.53766 14.2137 7.38782 14.2137 7.20051C16.2018 7.16305 17.9277 5.73687 17.9277 4.08859C17.9277 3.26445 17.3658 2.62493 17.0661 2.25033C17.141 2.25033 17.2159 2.21286 17.2909 2.21286C17.5906 2.47509 18.4147 3.37415 18.4147 4.50065C18.4147 6.44862 16.4266 8.28688 14.1763 8.32434Z" fill="white"/>
<path d="M32.9661 1.01172V20.9623H31.465H29.4395V1.01172H32.9661Z" fill="black"/>
<path d="M92.9696 0.783691C92.3702 0.783691 91.9581 0.970997 91.7681 1.38307C91.6183 1.64529 91.5434 2.09482 91.5434 2.69687V3.33371H90.7192V3.97054H91.5434V8.99565H92.4424V3.97054H93.4164V3.33371H92.4424V2.50957C92.4424 2.20988 92.4799 1.94766 92.5173 1.83527C92.6297 1.64797 92.817 1.53558 93.0793 1.53558C93.2291 1.53558 93.3415 1.53558 93.4164 1.53558V0.823831C93.2692 0.783694 93.1569 0.783691 92.9696 0.783691ZM40.3156 0.821152V8.95819H42.3037C43.1279 8.95819 43.7299 8.80834 44.1045 8.4712C44.5166 8.13405 44.7414 7.53468 44.7414 6.70786C44.7414 6.14595 44.6664 5.69642 44.4791 5.39405C44.2918 5.05691 43.9172 4.79468 43.3928 4.6823C43.8423 4.53246 44.1794 4.30769 44.3293 4.008C44.5166 3.74578 44.5915 3.33371 44.5915 2.84672C44.5915 2.13496 44.4042 1.60783 44.0671 1.27068C43.7299 0.970998 43.2055 0.783691 42.4536 0.783691H40.3156V0.821152ZM60.004 0.821152V3.8207C59.7043 3.37117 59.2922 3.1464 58.7276 3.1464C58.0533 3.1464 57.5664 3.44609 57.3015 4.08292C57.1141 4.53246 57.0018 5.16929 57.0018 6.03356C57.0018 6.93263 57.0767 7.64706 57.264 8.05913C57.5262 8.69596 58.0132 9.03311 58.7651 9.03311C59.327 9.03311 59.7765 8.77088 60.0789 8.28389V8.92073H60.9405C60.903 8.39628 60.903 8.05913 60.903 7.87183V0.821152H60.004ZM95.1824 0.936213V2.02258H96.0066V0.936213H95.1824ZM96.9083 0.936213V2.02258H97.7699V0.936213H96.9083ZM41.2896 1.61051H42.2261C42.7131 1.61051 43.0503 1.68543 43.275 1.87273C43.5373 2.06004 43.6496 2.43465 43.6496 2.92164C43.6496 3.89562 43.2001 4.38529 42.2609 4.38529H41.2495V1.61051H41.2896ZM86.3711 1.87273L85.472 2.2848V3.33371H84.6104V3.97054H85.472V7.64706C85.472 8.17151 85.5469 8.50866 85.6968 8.69597C85.8841 8.92073 86.2212 9.03311 86.7457 9.03311C86.8955 9.03311 87.1203 9.03311 87.42 8.99565V8.28389C87.1952 8.32135 87.0454 8.32135 87.0079 8.32135C86.7457 8.32135 86.5959 8.28389 86.4835 8.17151C86.4086 8.05913 86.3336 7.83436 86.3336 7.53468V3.97054H87.3451V3.33371H86.3336V1.87006H86.3711V1.87273ZM54.0424 3.18386C53.3681 3.18386 52.8811 3.48355 52.5787 4.08292V3.29625H51.6796C51.7171 3.63339 51.7171 4.04546 51.7171 4.53513V8.96087H52.6162V5.54925C52.6162 5.09972 52.6911 4.72511 52.8784 4.38796C53.1032 4.01335 53.3654 3.82605 53.7775 3.82605C54.1521 3.82605 54.4143 3.97589 54.5641 4.31304C54.6391 4.50035 54.6765 4.83749 54.6765 5.32448V8.96354H55.5756V4.94988C55.5435 3.78591 55.0538 3.18386 54.0424 3.18386ZM64.3923 3.18386C63.5307 3.18386 62.9286 3.52101 62.6664 4.19531C62.4791 4.64484 62.4042 5.3566 62.4042 6.37071C62.4042 7.26978 62.5165 7.90928 62.7413 8.28389C63.041 8.80835 63.5654 9.07057 64.3548 9.07057C65.5562 9.07057 66.1931 8.43374 66.268 7.19485H65.4064C65.3689 8.01899 65.0318 8.43374 64.3949 8.43374C63.9454 8.43374 63.6832 8.24643 63.5333 7.87183C63.421 7.6096 63.3835 7.19753 63.3835 6.63294V6.25833H66.3456V5.9961C66.3456 5.09704 66.2707 4.45753 66.0834 4.08292C65.7435 3.48623 65.2191 3.18386 64.3923 3.18386ZM69.1551 3.18386C68.6681 3.18386 68.2561 3.29624 67.9537 3.55847C67.6166 3.8207 67.4667 4.19531 67.4667 4.6823C67.4667 5.13183 67.6166 5.46898 67.9163 5.7312C68.0661 5.88105 68.4033 6.06835 68.9277 6.36804C69.3023 6.5928 69.5645 6.74265 69.6769 6.85503C69.8642 7.04233 69.9391 7.2671 69.9391 7.60425C69.9391 8.20362 69.6395 8.46585 69.0775 8.46585C68.5906 8.46585 68.2909 8.16616 68.2534 7.56679C68.2534 7.4544 68.2534 7.37948 68.2534 7.2671H67.3543C67.3169 8.50598 67.9163 9.10536 69.0802 9.10536C70.2816 9.10536 70.8436 8.54345 70.8436 7.4544C70.8436 7.04234 70.6937 6.66772 70.4315 6.4055C70.2442 6.21819 69.9445 6.03089 69.495 5.76866C69.0829 5.5439 68.8207 5.39405 68.7083 5.28167C68.4835 5.09437 68.3711 4.86961 68.3711 4.60738C68.3711 4.38261 68.4461 4.19531 68.5959 4.04546C68.7457 3.89562 68.9331 3.8207 69.1578 3.8207C69.6823 3.8207 69.9445 4.15785 69.9445 4.8696H70.8436C70.8436 4.30769 70.6937 3.85816 70.4315 3.59326C70.1693 3.33638 69.7572 3.18386 69.1551 3.18386ZM73.918 3.18386C73.3561 3.18386 72.944 3.29624 72.6042 3.52101C72.2296 3.78324 72.0423 4.15785 72.0423 4.6823V4.71976H72.9414V4.6823C72.9414 4.42007 73.0163 4.19531 73.2036 4.04546C73.3909 3.89562 73.6157 3.8207 73.8779 3.8207C74.2525 3.8207 74.5147 3.97054 74.6271 4.27023C74.702 4.45753 74.7395 4.75722 74.7395 5.24421V5.50644C73.803 5.50644 73.126 5.61882 72.7139 5.80613C72.1146 6.06835 71.7774 6.63026 71.7774 7.41962C71.7774 7.90661 71.8898 8.31868 72.1145 8.62104C72.3768 8.92073 72.7514 9.10803 73.2384 9.10803C73.8752 9.10803 74.3622 8.84581 74.7769 8.28389V9.03311H75.6385C75.6011 8.50866 75.5636 7.90929 75.5636 7.23232V5.13183C75.5636 4.45753 75.4512 4.008 75.189 3.70564C75.0071 3.33638 74.5575 3.18386 73.918 3.18386ZM79.4703 3.18386C78.8709 3.18386 78.4214 3.48355 78.119 4.04546V3.29625H77.2199C77.2574 3.59593 77.2574 3.93308 77.2574 4.27023V8.95819H78.1565V5.47165C78.1565 5.02212 78.2314 4.61005 78.3812 4.34783C78.5685 4.01068 78.8307 3.86083 79.1679 3.86083C79.505 3.86083 79.7673 4.01068 79.8422 4.27291C79.9171 4.42275 79.9171 4.68497 79.9171 5.09704V8.96087H80.8162V5.39673C80.8162 4.38529 81.1533 3.85816 81.8276 3.85816C82.1648 3.85816 82.3895 4.008 82.5019 4.27023C82.5768 4.45753 82.6143 4.71976 82.6143 5.13183V8.95819H83.5134V5.09437C83.5134 4.42007 83.401 3.97054 83.2137 3.66818C82.9889 3.33103 82.6143 3.14373 82.1273 3.14373C81.5279 3.14373 81.0409 3.44342 80.7386 4.00533C80.5566 3.48623 80.1071 3.18386 79.4703 3.18386ZM102.308 3.18386C101.671 3.18386 101.184 3.48355 100.882 4.04546V3.29625H100.02C100.058 3.59593 100.058 3.93308 100.058 4.30769V8.95819H100.957V5.43419C100.957 4.98466 101.069 4.64751 101.294 4.38529C101.519 4.12306 101.818 3.97322 102.268 3.97322C102.305 3.97322 102.38 3.97322 102.455 4.01068C102.42 3.48623 102.383 3.18386 102.308 3.18386ZM46.2425 3.29892V7.31259C46.2425 8.47388 46.7669 9.07592 47.781 9.07592C48.3804 9.07592 48.8674 8.8137 49.2072 8.25179V8.96354H50.1063C50.0688 8.58893 50.0688 8.17686 50.0688 7.72466V3.29892H49.1698V6.748C49.1698 7.83437 48.7952 8.39895 48.0459 8.39895C47.6339 8.39895 47.4091 8.24911 47.2593 7.91196C47.1843 7.72466 47.1469 7.38751 47.1469 6.93798V3.29892H46.2425ZM94.5456 3.29892V7.31259C94.5456 8.47388 95.07 9.07592 96.0842 9.07592C96.6835 9.07592 97.1705 8.8137 97.5103 8.25179V8.96354H98.4094C98.3719 8.58893 98.3719 8.17686 98.3719 7.72466V3.29892H97.4729V6.748C97.4729 7.83437 97.0983 8.39895 96.3491 8.39895C95.937 8.39895 95.6748 8.24911 95.5624 7.91196C95.4875 7.72466 95.45 7.38751 95.45 6.93798V3.29892H94.5456ZM64.3923 3.82337C64.8418 3.82337 65.1415 4.04814 65.2539 4.49767C65.3288 4.72244 65.3662 5.09704 65.3662 5.65896H63.3032C63.3032 5.43419 63.3032 5.17196 63.3407 4.90974C63.4183 4.19798 63.7554 3.82337 64.3923 3.82337ZM58.9551 3.82337C59.4046 3.82337 59.7043 4.0856 59.8541 4.53513C59.9665 4.87228 60.0414 5.39673 60.0414 6.18609C60.0414 6.89784 60.004 7.38751 59.8916 7.6872C59.7418 8.17419 59.4046 8.39895 58.9551 8.39895C58.543 8.39895 58.2433 8.17419 58.0935 7.6872C57.9811 7.35005 57.9062 6.78814 57.9062 6.03624C57.9062 5.36195 57.9436 4.83482 58.056 4.53513C58.2433 4.0856 58.543 3.82337 58.9551 3.82337ZM41.2896 5.1345H42.3011C42.8255 5.1345 43.2001 5.24689 43.4249 5.50911C43.6496 5.77134 43.762 6.14595 43.762 6.71054C43.762 7.30991 43.6122 7.72198 43.35 7.94942C43.1252 8.13673 42.7131 8.21165 42.1485 8.21165H41.2869L41.2896 5.1345ZM74.5201 6.11116H74.7448V6.78546C74.7448 7.23499 74.6699 7.57214 74.5201 7.87183C74.3328 8.24643 73.9956 8.43374 73.5836 8.43374C73.0216 8.43374 72.7594 8.05913 72.7594 7.34737C72.7567 6.52323 73.3187 6.11116 74.5201 6.11116ZM39.5664 12.8247L41.7044 20.9617H42.8656L45.0036 12.8247H44.0671L42.3037 20.0627L40.5778 12.8247H39.5664ZM54.1922 12.8247V19.8754C54.1922 20.1001 54.1922 20.4373 54.1547 20.9617H55.0163V20.3249C55.316 20.8119 55.7656 21.0741 56.3676 21.0741C57.1168 21.0741 57.6065 20.737 57.8687 20.0627C58.0186 19.6131 58.1309 18.9763 58.1309 18.0746C58.1309 17.213 58.056 16.5735 57.9062 16.1614C57.6439 15.5245 57.1944 15.1874 56.48 15.1874C55.9181 15.1874 55.4685 15.4122 55.1287 15.8992V12.8247H54.1922ZM78.1939 12.8247V20.9617H79.093V17.5126C79.093 16.3888 79.4676 15.8242 80.2543 15.8242C80.6289 15.8242 80.8911 15.9741 81.0409 16.3112C81.1159 16.4985 81.1533 16.8357 81.1533 17.3227V20.9617H82.0524V16.9481C82.0524 15.7466 81.5654 15.1473 80.5513 15.1473C79.9519 15.1473 79.5024 15.4095 79.1251 15.9339V12.822H78.1939V12.8247ZM101.297 12.8247V20.9617H102.196V17.5126C102.196 16.3888 102.57 15.8242 103.357 15.8242C103.732 15.8242 103.994 15.9741 104.144 16.3112C104.219 16.4985 104.256 16.8357 104.256 17.3227V20.9617H105.155V16.9481C105.155 15.7466 104.668 15.1473 103.654 15.1473C103.055 15.1473 102.605 15.4095 102.228 15.9339V12.822H101.297V12.8247ZM136.063 12.8247V15.8242C135.763 15.3747 135.351 15.1499 134.787 15.1499C134.112 15.1499 133.625 15.4496 133.36 16.0865C133.173 16.536 133.061 17.1728 133.061 18.0371C133.061 18.9362 133.136 19.6131 133.323 20.0627C133.585 20.6995 134.072 21.0366 134.824 21.0366C135.386 21.0366 135.835 20.7744 136.138 20.2874V20.9617H136.999C136.962 20.4373 136.962 20.1001 136.962 19.8754V12.8247H136.063ZM113.447 13.8361L112.548 14.2482V15.2971H111.687V15.9714H112.548V19.6479C112.548 20.1724 112.623 20.5095 112.773 20.7343C112.96 20.959 113.297 21.0714 113.822 21.0714C113.972 21.0714 114.196 21.0714 114.459 21.034V20.3222C114.234 20.3597 114.084 20.3597 114.047 20.3597C113.784 20.3597 113.635 20.3222 113.522 20.2098C113.447 20.0975 113.372 19.9101 113.372 19.573V16.0089H114.384V15.3346H113.372V13.8335H113.447V13.8361ZM47.4412 15.1499C46.5796 15.1499 45.9776 15.4871 45.7153 16.1614C45.528 16.6109 45.4531 17.3227 45.4531 18.3368C45.4531 19.2358 45.5655 19.8754 45.7903 20.25C46.0899 20.7744 46.6144 21.0741 47.4038 21.0741C48.6052 21.0741 49.242 20.4373 49.3169 19.1609H48.4553C48.4179 19.9851 48.0807 20.3998 47.4439 20.3998C46.9944 20.3998 46.7321 20.2125 46.5823 19.8379C46.4699 19.5757 46.4324 19.1636 46.4324 18.599V18.2244H49.3945V17.9622C49.3945 17.0631 49.3196 16.4236 49.1323 16.049C48.7925 15.4496 48.2654 15.1499 47.4412 15.1499ZM64.5796 15.1499C64.0177 15.1499 63.6056 15.2623 63.2658 15.4871C62.8911 15.7493 62.7038 16.1239 62.7038 16.6484V16.7233H63.6029V16.6484C63.6029 16.3861 63.6778 16.1614 63.8651 16.0115C64.0524 15.8617 64.2772 15.7868 64.5394 15.7868C64.914 15.7868 65.1763 15.9366 65.3261 16.2363C65.401 16.4236 65.4385 16.7233 65.4385 17.2103V17.4725C64.502 17.4725 63.825 17.5849 63.4504 17.7722C62.851 18.0344 62.5139 18.5963 62.5139 19.3857C62.5139 19.8727 62.6262 20.2848 62.851 20.5871C63.1132 20.8868 63.4878 21.0741 63.9748 21.0741C64.6117 21.0741 65.0987 20.8119 65.5134 20.25V20.9992H66.375C66.3376 20.4747 66.3376 19.8754 66.3376 19.1984V17.0979C66.3376 16.4236 66.2252 15.9741 65.9629 15.6717C65.7061 15.2998 65.2565 15.1499 64.5796 15.1499ZM75.1944 15.1499C74.3702 15.1499 73.8056 15.4871 73.506 16.1239C73.3186 16.536 73.2063 17.2477 73.2063 18.2244C73.2063 19.2011 73.3187 19.9128 73.5434 20.2874C73.8056 20.8119 74.3676 21.0741 75.1569 21.0741C76.3182 21.0741 76.9202 20.4373 76.9202 19.1984H76.0586C76.0586 19.573 75.9837 19.8727 75.8713 20.06C75.7215 20.3222 75.4967 20.4346 75.1221 20.4346C74.7101 20.4346 74.4478 20.2473 74.298 19.8727C74.1856 19.5355 74.1107 18.9736 74.1107 18.1093C74.1107 17.3601 74.1481 16.833 74.2231 16.5333C74.3729 16.0463 74.6726 15.7841 75.1221 15.7841C75.7215 15.7841 75.9837 16.1962 75.9837 16.9855H76.8453C76.8453 16.3487 76.7329 15.8992 76.4707 15.5968C76.3182 15.2998 75.8687 15.1499 75.1944 15.1499ZM85.5068 15.1499C84.6452 15.1499 84.0432 15.4871 83.7809 16.1614C83.5936 16.6109 83.5187 17.3227 83.5187 18.3368C83.5187 19.2358 83.6311 19.8754 83.8559 20.25C84.1555 20.7744 84.68 21.0741 85.4693 21.0741C86.6708 21.0741 87.3076 20.4373 87.3825 19.1609H86.5209C86.4835 19.9851 86.1463 20.3998 85.5095 20.3998C85.06 20.3998 84.7977 20.2125 84.6479 19.8379C84.5355 19.5757 84.498 19.1636 84.498 18.599V18.2244H87.4601V17.9622C87.4601 17.0631 87.3852 16.4236 87.1979 16.049C86.8581 15.4496 86.2962 15.1499 85.5068 15.1499ZM93.5341 15.1499C93.0471 15.1499 92.6351 15.2623 92.3327 15.5245C91.9956 15.7868 91.8457 16.1614 91.8457 16.6484C91.8457 17.0979 91.9956 17.4351 92.2578 17.6973C92.4076 17.8471 92.7448 18.0344 93.2692 18.3341C93.6439 18.5589 93.9061 18.7087 94.0185 18.8211C94.2058 19.0084 94.2807 19.2706 94.2807 19.5703C94.2807 20.1697 93.981 20.4319 93.4191 20.4319C92.9321 20.4319 92.6324 20.1322 92.5949 19.5329C92.5949 19.4205 92.5949 19.3456 92.5949 19.2332H91.6959C91.6584 20.4721 92.2578 21.0714 93.4218 21.0714C94.6232 21.0714 95.1851 20.5095 95.1851 19.4205C95.1851 19.0084 95.0353 18.6338 94.773 18.3716C94.5857 18.1843 94.286 17.997 93.8365 17.7347C93.4244 17.51 93.1622 17.3601 93.0498 17.2477C92.8251 17.0604 92.7127 16.8357 92.7127 16.6109C92.7127 16.3861 92.7876 16.1988 92.9374 16.049C93.0873 15.8992 93.2746 15.8242 93.4994 15.8242C94.0238 15.8242 94.286 16.1614 94.286 16.8731H95.1851C95.1851 16.3112 95.0353 15.8992 94.773 15.5968C94.5456 15.2998 94.1335 15.1499 93.5341 15.1499ZM98.297 15.1499C97.4729 15.1499 96.8708 15.4871 96.6086 16.1239C96.4213 16.536 96.3464 17.2477 96.3464 18.2244C96.3464 19.2011 96.4588 19.9128 96.6461 20.2874C96.9083 20.8119 97.4702 21.0741 98.297 21.0741C99.4583 21.0741 100.06 20.4373 100.06 19.1984H99.1988C99.1988 19.573 99.1238 19.8727 99.0115 20.06C98.8616 20.3222 98.6368 20.4346 98.2622 20.4346C97.8502 20.4346 97.5879 20.2473 97.4381 19.8727C97.3257 19.5355 97.2508 18.9736 97.2508 18.1093C97.2508 17.3601 97.2883 16.833 97.3632 16.5333C97.513 16.0463 97.8127 15.7841 98.2622 15.7841C98.8616 15.7841 99.1238 16.1962 99.1238 16.9855H99.9854C99.9854 16.3487 99.8731 15.8992 99.6108 15.5968C99.4208 15.2998 98.9713 15.1499 98.297 15.1499ZM130.099 15.1499C129.424 15.1499 128.937 15.4496 128.635 16.049V15.2623H127.773C127.811 15.5995 127.811 16.0115 127.811 16.5012V20.9269H128.71V17.5153C128.71 17.0658 128.785 16.6912 128.972 16.354C129.197 15.9794 129.459 15.7921 129.871 15.7921C130.246 15.7921 130.508 15.942 130.658 16.2791C130.733 16.4664 130.77 16.8036 130.77 17.2906V20.9296H131.669V16.8731C131.562 15.7493 131.073 15.1499 130.099 15.1499ZM53.0282 15.1499C52.3914 15.1499 51.9044 15.4496 51.602 16.0115V15.2623H50.7404C50.7779 15.562 50.7779 15.8992 50.7779 16.3112V20.9617H51.677V17.4377C51.677 16.9882 51.7894 16.651 52.0141 16.3888C52.2389 16.1266 52.5386 16.0142 52.9881 16.0142C53.0256 16.0142 53.1005 16.0142 53.1754 16.0517C53.1032 15.4496 53.0657 15.1499 53.0282 15.1499ZM61.8422 15.1499C61.2054 15.1499 60.7184 15.4496 60.4161 16.0115V15.2623H59.5545C59.5919 15.562 59.5919 15.8992 59.5919 16.3112V20.9617H60.491V17.4377C60.491 16.9882 60.6034 16.651 60.8281 16.3888C61.0529 16.1266 61.3526 16.0142 61.8021 16.0142C61.8396 16.0142 61.9145 16.0142 61.9894 16.0517C61.9172 15.4496 61.8797 15.1499 61.8422 15.1499ZM91.059 15.1499C90.4222 15.1499 89.9352 15.4496 89.6329 16.0115V15.2623H88.7713C88.8087 15.562 88.8087 15.8992 88.8087 16.3112V20.9617H89.7078V17.4377C89.7078 16.9882 89.8202 16.651 90.0449 16.3888C90.2697 16.1266 90.5694 16.0142 91.0189 16.0142C91.0564 16.0142 91.1313 16.0142 91.2062 16.0517C91.134 15.4496 91.134 15.1499 91.059 15.1499ZM67.9939 15.2623V19.276C67.9939 20.4373 68.4808 21.0393 69.495 21.0393C70.0943 21.0393 70.5813 20.7771 70.9212 20.2152V20.9269H71.8202C71.7828 20.5523 71.7828 20.1028 71.7828 19.6881V15.2623H70.8837V18.7114C70.8837 19.7978 70.5091 20.3624 69.7599 20.3624C69.3478 20.3624 69.0856 20.2125 68.9732 19.8754C68.8983 19.6881 68.8608 19.3509 68.8608 18.9014V15.2623H67.9939ZM106.809 15.2623V19.276C106.809 20.4373 107.333 21.0393 108.347 21.0393C108.947 21.0393 109.434 20.7771 109.773 20.2152V20.9269H110.672C110.635 20.5523 110.635 20.1028 110.635 19.6881V15.2623H109.736V18.7114C109.736 19.7978 109.361 20.3624 108.612 20.3624C108.2 20.3624 107.938 20.2125 107.825 19.8754C107.751 19.6881 107.713 19.3509 107.713 18.9014V15.2623H106.809ZM115.286 15.2623V15.9366H117.386L115.173 20.25V20.9617H118.36V20.2874H116.11L118.323 15.9741V15.2623H115.286ZM122.299 15.2623V19.276C122.299 20.4373 122.823 21.0393 123.837 21.0393C124.437 21.0393 124.924 20.7771 125.263 20.2152V20.9269H126.163C126.125 20.5523 126.125 20.1028 126.125 19.6881V15.2623H125.189V18.7114C125.189 19.7978 124.814 20.3624 124.065 20.3624C123.653 20.3624 123.428 20.2125 123.278 19.8754C123.203 19.6881 123.166 19.3509 123.166 18.9014V15.2623H122.299ZM47.4412 15.7868C47.8907 15.7868 48.1904 16.0115 48.3028 16.4611C48.3777 16.6858 48.4152 17.0604 48.4152 17.6224H46.3522C46.3522 17.3976 46.3522 17.1354 46.3896 16.8731C46.4672 16.1614 46.8418 15.7868 47.4412 15.7868ZM85.4693 15.7868C85.9189 15.7868 86.2186 16.0115 86.3309 16.4611C86.4059 16.6858 86.4433 17.0604 86.4433 17.6224H84.3803C84.3803 17.3976 84.3803 17.1354 84.4178 16.8731C84.5328 16.1614 84.87 15.7868 85.4693 15.7868ZM56.1803 15.7868C56.6298 15.7868 56.9295 16.049 57.0794 16.6109C57.1543 16.9106 57.1917 17.3601 57.1917 17.9622C57.1917 18.9362 57.0794 19.5757 56.8546 19.9128C56.6673 20.2125 56.4425 20.3249 56.1428 20.3249C55.7308 20.3249 55.4311 20.1376 55.2438 19.763C55.0939 19.4633 55.019 18.9014 55.019 18.0746C55.019 17.1006 55.1314 16.4611 55.3562 16.1614C55.5809 15.9366 55.8432 15.7868 56.1803 15.7868ZM135.011 15.7868C135.461 15.7868 135.761 16.0115 135.91 16.4985C136.023 16.8357 136.098 17.3976 136.098 18.1495C136.098 18.8612 136.06 19.3509 135.948 19.6506C135.798 20.1376 135.461 20.3624 134.974 20.3624C134.562 20.3624 134.3 20.1376 134.112 19.6506C134 19.3134 133.925 18.7515 133.925 18.0371C133.925 17.3628 133.962 16.8357 134.075 16.536C134.262 16.049 134.562 15.7868 135.011 15.7868ZM65.2191 18.0746H65.4438V18.7489C65.4438 19.1984 65.3689 19.573 65.2191 19.8352C65.0318 20.2098 64.6946 20.3597 64.2826 20.3597C63.7206 20.3597 63.4584 19.9851 63.4584 19.2733C63.4557 18.4866 64.0177 18.0746 65.2191 18.0746ZM40.3156 24.7881V32.9251H43.8396V32.1384H41.2896V24.7506H40.3156V24.7881ZM50.0662 24.7881V31.8388C50.0662 32.0635 50.0662 32.4007 50.0287 32.9251H50.8903V32.2508C51.19 32.7378 51.6395 33 52.2416 33C52.9908 33 53.4804 32.6629 53.7427 31.9886C53.8925 31.5391 54.0049 30.8648 54.0049 29.963C54.0049 29.1014 53.93 28.4619 53.7801 28.0873C53.5179 27.4505 53.0684 27.1133 52.3539 27.1133C51.792 27.1133 51.3425 27.3381 51.0027 27.8251V24.7881H50.0662ZM92.7073 24.7881V32.9251H93.6064V24.7881H93.1569H92.7073ZM107.071 24.7881V32.9251H107.97V29.476C107.97 28.3522 108.345 27.7876 109.094 27.7876C109.468 27.7876 109.731 27.9749 109.88 28.2746C109.955 28.4619 109.993 28.7991 109.993 29.2861V32.9251H110.892V28.9115C110.892 27.71 110.405 27.1481 109.391 27.1481C108.791 27.1481 108.342 27.4103 107.965 27.9348V24.8229H107.071V24.7881ZM121.097 24.7881V32.9251H121.996V29.476C121.996 28.3522 122.371 27.7876 123.158 27.7876C123.532 27.7876 123.794 27.9749 123.944 28.2746C124.019 28.4619 124.057 28.7991 124.057 29.2861V32.9251H124.956V28.9115C124.956 27.71 124.469 27.1481 123.455 27.1481C122.855 27.1481 122.406 27.4103 122.028 27.9348V24.8229H121.092V24.7881H121.097ZM78.3812 24.9005V25.8745H79.3552V24.9005H78.3812ZM99.7205 24.9005V25.8745H100.695V24.9005H99.7205ZM131.637 24.9005V25.8745H132.611V24.9005H131.637ZM82.1701 25.7995L81.2711 26.2116V27.2605H80.4095V27.8973H81.2711V31.5739C81.2711 32.0983 81.346 32.4355 81.4958 32.6228C81.6831 32.8475 82.0203 32.9599 82.5447 32.9599C82.6946 32.9599 82.9193 32.9599 83.219 32.9224V32.2107C82.9943 32.2481 82.8444 32.2482 82.807 32.2482C82.5447 32.2482 82.3949 32.2107 82.32 32.0983C82.245 31.9859 82.1701 31.7612 82.1701 31.4615V27.8973H83.1816V27.2605H82.1701V25.7995ZM85.4693 25.7995L84.5703 26.2116V27.2605H83.7087V27.8973H84.5703V31.5739C84.5703 32.0983 84.6452 32.4355 84.7951 32.6228C84.9824 32.8475 85.3195 32.9599 85.844 32.9599C85.9938 32.9599 86.2186 32.9599 86.4808 32.9224V32.2107C86.256 32.2481 86.1062 32.2482 86.0687 32.2482C85.8065 32.2482 85.6567 32.2107 85.5443 32.0983C85.4693 31.9859 85.3944 31.7612 85.3944 31.4615V27.8973H86.4059V27.2605H85.3944V25.7969H85.4693V25.7995ZM135.386 25.7995L134.487 26.2116V27.2605H133.625V27.8973H134.487V31.5739C134.487 32.0983 134.562 32.4355 134.712 32.6228C134.899 32.8475 135.236 32.9599 135.761 32.9599C135.91 32.9599 136.135 32.9599 136.435 32.9224V32.2107C136.21 32.2481 136.06 32.2482 136.023 32.2482C135.761 32.2482 135.611 32.2107 135.498 32.0983C135.423 31.9859 135.348 31.7612 135.348 31.4615V27.8973H136.36V27.2605H135.348V25.7969H135.386V25.7995ZM46.8044 27.1133C45.9428 27.1133 45.3407 27.4505 45.0785 28.1248C44.8912 28.5743 44.8163 29.2861 44.8163 30.3002C44.8163 31.1992 44.9287 31.8388 45.1534 32.2134C45.4531 32.7378 45.9776 33 46.7669 33C47.9683 33 48.6052 32.3632 48.6801 31.1243H47.8185C47.781 31.9485 47.4439 32.3632 46.8071 32.3632C46.3575 32.3632 46.0953 32.1759 45.9455 31.8013C45.8331 31.5391 45.7956 31.127 45.7956 30.5624V30.1878H48.7577V29.9256C48.7577 29.0265 48.6828 28.387 48.4955 28.0124C48.153 27.413 47.5911 27.1133 46.8044 27.1133ZM57.2292 27.1133C56.3676 27.1133 55.803 27.4505 55.5033 28.1248C55.316 28.5743 55.2036 29.2861 55.2036 30.3002C55.2036 31.1992 55.316 31.8388 55.5408 32.2134C55.8405 32.7378 56.3649 33 57.1543 33C58.3557 33 58.9925 32.3632 59.0675 31.1243H58.2059C58.1684 31.9485 57.8313 32.3632 57.1944 32.3632C56.7449 32.3632 56.4827 32.1759 56.3328 31.8013C56.2204 31.5391 56.183 31.127 56.183 30.5624V30.1878H59.1451V29.9256C59.1451 29.0265 59.0701 28.387 58.8828 28.0124C58.5805 27.413 58.056 27.1133 57.2292 27.1133ZM62.8564 27.1133C62.1821 27.1133 61.6951 27.413 61.3927 28.0124V27.2257H60.5311C60.5686 27.5629 60.5686 27.9375 60.5686 28.4646V32.8903H61.4676V29.476C61.4676 29.0265 61.5426 28.6519 61.7299 28.3148C61.9546 27.9401 62.2169 27.7528 62.6289 27.7528C63.0035 27.7528 63.2658 27.9401 63.4156 28.2398C63.4905 28.4271 63.528 28.7643 63.528 29.2513V32.8903H64.427V28.8392C64.3548 27.7127 63.8303 27.1133 62.8564 27.1133ZM67.5069 27.1133C67.0199 27.1133 66.6078 27.2257 66.3054 27.4879C65.9683 27.7502 65.8184 28.1248 65.8184 28.6118C65.8184 29.0613 65.9683 29.3984 66.268 29.6607C66.4178 29.8105 66.755 29.9978 67.2794 30.2975C67.654 30.5223 67.9163 30.6721 68.0286 30.7845C68.2159 30.9718 68.2909 31.1966 68.2909 31.5337C68.2909 32.1331 67.9912 32.3953 67.4293 32.3953C66.9423 32.3953 66.6426 32.0956 66.6051 31.4963C66.6051 31.3839 66.6051 31.309 66.6051 31.1966H65.7061C65.6686 32.4355 66.268 33.0348 67.4319 33.0348C68.6334 33.0348 69.2327 32.4729 69.2327 31.3839C69.2327 30.9718 69.0829 30.5972 68.8207 30.2975C68.6334 30.1102 68.3337 29.9229 67.8841 29.6607C67.4721 29.4359 67.1724 29.2486 67.06 29.1737C66.8352 28.9864 66.7229 28.7616 66.7229 28.5368C66.7229 28.3121 66.7978 28.1248 66.9102 27.9749C67.06 27.8251 67.2473 27.7502 67.4721 27.7502C67.9965 27.7502 68.2588 28.0873 68.2588 28.7991H69.1578C69.1578 28.2372 69.008 27.7876 68.7457 27.5227C68.4808 27.2632 68.0688 27.1133 67.5069 27.1133ZM72.6818 27.1133C72.0824 27.1133 71.6329 27.413 71.3305 27.9749V27.2257H70.4315C70.469 27.5254 70.4689 27.8626 70.4689 28.1997V32.8877H71.368V29.4011C71.368 28.9516 71.4429 28.5395 71.5928 28.2773C71.7801 27.9401 72.0423 27.7903 72.3795 27.7903C72.7166 27.7903 72.9788 27.9402 73.0537 28.2024C73.1287 28.3522 73.1287 28.6144 73.1287 29.0265V32.8903H74.0277V29.3262C74.0277 28.3148 74.3649 27.7876 75.0392 27.7876C75.3763 27.7876 75.6011 27.9375 75.7135 28.1997C75.7884 28.387 75.8259 28.6492 75.8259 29.0613V32.8877H76.7249V29.0238C76.7249 28.3495 76.6125 27.9 76.4252 27.5977C76.2005 27.2605 75.8633 27.0732 75.3389 27.0732C74.7395 27.0732 74.2525 27.3729 73.9127 27.9348C73.7682 27.413 73.3561 27.1133 72.6818 27.1133ZM89.4456 27.1133C88.584 27.1133 87.9819 27.4505 87.7197 28.1248C87.5324 28.5743 87.4575 29.2861 87.4575 30.3002C87.4575 31.1992 87.5698 31.8388 87.7946 32.2134C88.0943 32.7378 88.6187 33 89.4081 33C90.6095 33 91.2464 32.3632 91.3213 31.1243H90.4597C90.4222 31.9485 90.0851 32.3632 89.4482 32.3632C88.9987 32.3632 88.7365 32.1759 88.5866 31.8013C88.4743 31.5391 88.4368 31.127 88.4368 30.5624V30.1878H91.3989V29.9256C91.3989 29.0265 91.324 28.387 91.1367 28.0124C90.7942 27.413 90.2322 27.1133 89.4456 27.1133ZM96.7584 27.1133C96.2715 27.1133 95.8594 27.2257 95.557 27.4879C95.2199 27.7502 95.07 28.1248 95.07 28.6118C95.07 29.0613 95.2199 29.3984 95.5196 29.6607C95.6694 29.8105 96.0066 29.9978 96.531 30.2975C96.9056 30.5223 97.1678 30.6721 97.2802 30.7845C97.4675 30.9718 97.5425 31.1966 97.5425 31.5337C97.5425 32.1331 97.2428 32.3953 96.6809 32.3953C96.1939 32.3953 95.8942 32.0956 95.8567 31.4963C95.8567 31.3839 95.8567 31.309 95.8567 31.1966H94.9577C94.9202 32.4355 95.5196 33.0348 96.6835 33.0348C97.885 33.0348 98.4469 32.4729 98.4469 31.3839C98.4469 30.9718 98.297 30.5972 98.0348 30.2975C97.8475 30.1102 97.5478 29.9229 97.0983 29.6607C96.6862 29.4359 96.424 29.2486 96.3116 29.1737C96.0868 28.9864 95.9744 28.7616 95.9744 28.5368C95.9744 28.3121 96.0494 28.1248 96.1992 27.9749C96.3491 27.8251 96.5364 27.7502 96.7611 27.7502C97.2856 27.7502 97.5478 28.0873 97.5478 28.7991H98.4469C98.4469 28.2372 98.297 27.7876 98.0348 27.5227C97.7699 27.2632 97.3578 27.1133 96.7584 27.1133ZM104.109 27.1133C103.285 27.1133 102.72 27.413 102.42 28.0499C102.233 28.4619 102.121 29.1737 102.121 30.1503C102.121 31.1243 102.233 31.8388 102.42 32.2134C102.683 32.7378 103.245 33 104.071 33C105.233 33 105.835 32.3632 105.835 31.1243H104.973C104.973 31.4989 104.898 31.7986 104.786 31.9859C104.636 32.2481 104.411 32.3605 104.037 32.3605C103.624 32.3605 103.362 32.1732 103.212 31.8361C103.1 31.4989 103.025 30.937 103.025 30.0727C103.025 29.3235 103.063 28.7964 103.138 28.4967C103.287 28.0097 103.587 27.7475 104.037 27.7475C104.636 27.7475 104.898 28.1596 104.898 28.9489H105.76C105.76 28.3121 105.647 27.8626 105.385 27.5602C105.198 27.2632 104.746 27.1133 104.109 27.1133ZM114.384 27.1133C113.522 27.1133 112.958 27.4505 112.658 28.1248C112.471 28.5743 112.358 29.2861 112.358 30.3002C112.358 31.1992 112.471 31.8388 112.695 32.2134C112.995 32.7378 113.52 33 114.309 33C115.51 33 116.147 32.3632 116.222 31.1243H115.36C115.323 31.9485 114.986 32.3632 114.349 32.3632C113.899 32.3632 113.637 32.1759 113.487 31.8013C113.375 31.5391 113.338 31.127 113.338 30.5624V30.1878H116.3V29.9256C116.3 29.0265 116.225 28.387 116.037 28.0124C115.735 27.413 115.173 27.1133 114.384 27.1133ZM128.373 27.1133C127.511 27.1133 126.909 27.4505 126.647 28.1248C126.46 28.5743 126.385 29.2861 126.385 30.3002C126.385 31.1992 126.497 31.8388 126.722 32.2134C127.021 32.7378 127.546 33 128.335 33C129.537 33 130.174 32.3632 130.248 31.1243H129.387C129.349 31.9485 129.012 32.3632 128.375 32.3632C127.926 32.3632 127.664 32.1759 127.514 31.8013C127.401 31.5391 127.364 31.127 127.364 30.5624V30.1878H130.326V29.9256C130.326 29.0265 130.251 28.387 130.064 28.0124C129.724 27.413 129.2 27.1133 128.373 27.1133ZM119.936 27.1133C119.299 27.1133 118.812 27.413 118.51 27.9749V27.2257H117.648C117.686 27.5254 117.686 27.8626 117.686 28.2746V32.9251H118.585V29.4011C118.585 28.9516 118.697 28.6144 118.922 28.3522C119.147 28.09 119.446 27.9402 119.896 27.9402C119.933 27.9402 120.008 27.9402 120.083 27.9776C120.048 27.413 120.011 27.1133 119.936 27.1133ZM78.4561 27.2257V32.9251H79.3552V27.2257H78.4561ZM99.7955 27.2257V32.9251H100.695V27.2257H99.7955ZM131.675 27.2257V32.9251H132.574V27.2257H131.675ZM46.7669 27.7502C47.2165 27.7502 47.5161 27.9749 47.6285 28.4245C47.7034 28.6492 47.7409 29.0238 47.7409 29.5858H45.6779C45.6779 29.361 45.6779 29.0988 45.7153 28.8365C45.8277 28.1248 46.1675 27.7502 46.7669 27.7502ZM57.2292 27.7502C57.6787 27.7502 57.9784 27.9749 58.0908 28.4245C58.1657 28.6492 58.2032 29.0238 58.2032 29.5858H56.1402C56.1402 29.361 56.1402 29.0988 56.1776 28.8365C56.2552 28.1248 56.6298 27.7502 57.2292 27.7502ZM89.4081 27.7502C89.8576 27.7502 90.1573 27.9749 90.2697 28.4245C90.3446 28.6492 90.3821 29.0238 90.3821 29.5858H88.3191C88.3191 29.361 88.3191 29.0988 88.3565 28.8365C88.4689 28.1248 88.8087 27.7502 89.4081 27.7502ZM114.346 27.7502C114.796 27.7502 115.096 27.9749 115.208 28.4245C115.283 28.6492 115.32 29.0238 115.32 29.5858H113.257C113.257 29.361 113.257 29.0988 113.295 28.8365C113.41 28.1248 113.747 27.7502 114.346 27.7502ZM128.373 27.7502C128.822 27.7502 129.122 27.9749 129.234 28.4245C129.309 28.6492 129.347 29.0238 129.347 29.5858H127.284C127.284 29.361 127.284 29.0988 127.321 28.8365C127.399 28.1248 127.736 27.7502 128.373 27.7502ZM52.0917 27.7876C52.5412 27.7876 52.8409 28.0499 52.9908 28.6118C53.0657 28.9115 53.1032 29.361 53.1032 29.963C53.1032 30.937 52.9908 31.5765 52.8035 31.9137C52.6162 32.2134 52.3914 32.3632 52.0917 32.3632C51.6796 32.3632 51.38 32.1759 51.1927 31.8013C51.0428 31.5016 50.9679 30.9397 50.9679 30.1129C50.9679 29.1389 51.0803 28.4994 51.305 28.1997C51.4923 27.9 51.7546 27.7876 52.0917 27.7876Z" fill="white"/>
</svg>
