<svg width="161" height="108" viewBox="0 0 161 108" fill="none" xmlns="http://www.w3.org/2000/svg">
<g clip-path="url(#clip0_233_645)">
<path d="M63.8817 80.8116H118.651V69.1322H63.8817V80.8116ZM84.5242 46.2389H118.652V34.5596H84.5242V46.2389ZM46.6523 0.210938V28.955H58.015V11.8903H118.651V0.210938H46.6523ZM78.6621 34.6343H46.6523V80.7417H58.015V46.3136H78.6621V34.6343Z" fill="#9DBC78"/>
<path d="M32 106.725V94.458H40.9158V96.6876H34.3397V100.04H40.5608V102.181H34.3397V106.725H32Z" fill="#9DBC78"/>
<path d="M51.779 106.726H42.4922V94.4414H51.779V96.6884H44.8143V99.5134H51.5311V101.672H44.8143V104.444H51.779V106.726Z" fill="#9DBC78"/>
<path d="M57.168 106.725V94.458H66.0838V96.6876H59.5077V100.04H65.7287V102.181H59.5077V106.725H57.168Z" fill="#9DBC78"/>
<path d="M67.8906 106.726V94.4414H70.2127V106.726H67.8906Z" fill="#9DBC78"/>
<path d="M80.5614 94.4229H82.9011V106.725H81.4474V106.742L74.9256 98.4418V106.725H72.5859V94.4403H74.4826L80.5614 102.057V94.4229Z" fill="#9DBC78"/>
<path d="M93.8563 104.41H87.3698L86.3063 106.726H83.7715L89.3369 94.4414H91.8893L97.4546 106.726H94.9022L93.8563 104.41ZM90.6131 97.0209L88.3085 102.251H92.916L90.6115 97.0209H90.6131Z" fill="#9DBC78"/>
<path d="M106.671 94.4229H109.01V106.725H107.557V106.742L101.035 98.4418V106.725H98.6953V94.4403H100.592L106.671 102.057V94.4229Z" fill="#9DBC78"/>
<path d="M122.088 105.181C120.811 106.427 119.163 107.007 117.373 107.007C112.766 107.007 110.815 103.865 110.797 100.671C110.779 97.4599 112.889 94.1963 117.373 94.1963C119.057 94.1963 120.652 94.8281 121.928 96.0743L120.368 97.566C119.553 96.7758 118.454 96.4084 117.373 96.4084C114.378 96.4084 113.084 98.619 113.102 100.673C113.119 102.709 114.307 104.833 117.373 104.833C118.454 104.833 119.678 104.394 120.492 103.586L122.086 105.183L122.088 105.181Z" fill="#9DBC78"/>
<path d="M132.65 106.726H123.363V94.4414H132.65V96.6884H125.685V99.5134H132.402V101.672H125.685V104.444H132.65V106.726Z" fill="#9DBC78"/>
</g>
<defs>
<clipPath id="clip0_233_645">
<rect width="161" height="106.796" fill="white" transform="translate(0 0.210938)"/>
</clipPath>
</defs>
</svg>
