<svg width="61" height="65" viewBox="0 0 61 65" fill="none" xmlns="http://www.w3.org/2000/svg">
<path d="M19.3705 48.322H52.4977V41.3199H19.3705V48.322ZM31.8561 27.5949H52.4986V20.5928H31.8561V27.5949ZM8.94922 0V17.2327H15.822V7.00202H52.4977V0H8.94922ZM28.3104 20.6376H8.94922V48.2801H15.822V27.6396H28.3104V20.6376Z" fill="#9DBC78"/>
<path d="M0 64.0726V56.6934H5.40344V58.0345H1.41798V60.051H5.18827V61.3389H1.41798V64.0726H0Z" fill="#9DBC78"/>
<path d="M11.9877 64.0729H6.35938V56.6831H11.9877V58.0347H7.76669V59.7341H11.8374V61.0324H7.76669V62.7003H11.9877V64.0729Z" fill="#9DBC78"/>
<path d="M15.252 64.0726V56.6934H20.6554V58.0345H16.6699V60.051H20.4402V61.3389H16.6699V64.0726H15.252Z" fill="#9DBC78"/>
<path d="M21.752 64.0729V56.6831H23.1593V64.0729H21.752Z" fill="#9DBC78"/>
<path d="M29.4312 56.6719H30.8492V64.0721H29.9681V64.0826L26.0156 59.0894V64.0721H24.5977V56.6824H25.7472L29.4312 61.264V56.6719Z" fill="#9DBC78"/>
<path d="M37.4869 62.6793H33.5558L32.9112 64.0729H31.375L34.7479 56.6831H36.2948L39.6677 64.0729H38.1208L37.4869 62.6793ZM35.5214 58.2348L34.1247 61.381H36.917L35.5204 58.2348H35.5214Z" fill="#9DBC78"/>
<path d="M45.2535 56.6719H46.6714V64.0721H45.7904V64.0826L41.8379 59.0894V64.0721H40.4199V56.6824H41.5694L45.2535 61.264V56.6719Z" fill="#9DBC78"/>
<path d="M54.5987 63.1434C53.8252 63.893 52.826 64.2416 51.7414 64.2416C48.949 64.2416 47.7666 62.3518 47.7559 60.4306C47.7453 58.4988 49.0237 56.5356 51.7414 56.5356C52.762 56.5356 53.7283 56.9157 54.5017 57.6653L53.5567 58.5626C53.0624 58.0873 52.3966 57.8663 51.7414 57.8663C49.926 57.8663 49.1419 59.1961 49.1526 60.4315C49.1632 61.6565 49.8834 62.9338 51.7414 62.9338C52.3966 62.9338 53.138 62.67 53.6314 62.1842L54.5977 63.1443L54.5987 63.1434Z" fill="#9DBC78"/>
<path d="M60.9994 64.0729H55.3711V56.6831H60.9994V58.0347H56.7784V59.7341H60.8492V61.0324H56.7784V62.7003H60.9994V64.0729Z" fill="#9DBC78"/>
</svg>
